<svg width="64" height="64" viewBox="0 0 64 64" fill="none" xmlns="http://www.w3.org/2000/svg">
<path d="M58.6666 34.6666V23.9999C58.6666 10.6666 53.3333 5.33325 40 5.33325H24C10.6666 5.33325 5.33331 10.6666 5.33331 23.9999V39.9999C5.33331 53.3332 10.6666 58.6666 24 58.6666H34.6666" stroke="#143B2E" stroke-width="4" stroke-linecap="round" stroke-linejoin="round"/>
<path d="M19.5466 38.6401L25.8933 30.4001C26.8 29.2268 28.48 29.0135 29.6533 29.9201L34.5334 33.7601C35.7067 34.6668 37.3866 34.4535 38.2933 33.3068L44.4534 25.3601" stroke="#143B2E" stroke-width="4" stroke-linecap="round" stroke-linejoin="round"/>
<path d="M51.9467 42.1866L52.6933 43.7066C53.0667 44.4532 54 45.1466 54.8266 45.3066L55.84 45.4666C58.88 45.9732 59.6 48.2132 57.4133 50.4266L56.4799 51.3599C55.8666 51.9999 55.52 53.2266 55.7067 54.0799L55.84 54.6399C56.6666 58.3199 54.72 59.7332 51.52 57.8132L50.8266 57.4132C50 56.9332 48.6666 56.9332 47.84 57.4132L47.1466 57.8132C43.9199 59.7599 41.9733 58.3199 42.8266 54.6399L42.9599 54.0799C43.1466 53.2266 42.8 51.9999 42.1867 51.3599L41.2533 50.4266C39.0666 48.2132 39.7866 45.9732 42.8266 45.4666L43.84 45.3066C44.64 45.1733 45.5999 44.4532 45.9733 43.7066L46.7199 42.1866C48.1599 39.2799 50.5067 39.2799 51.9467 42.1866Z" stroke="#143B2E" stroke-width="4" stroke-linecap="round" stroke-linejoin="round"/>
</svg>
