<svg width="63" height="63" viewBox="0 0 63 63" fill="none" xmlns="http://www.w3.org/2000/svg">
<path d="M24.9375 36.0939C24.9375 38.6401 26.9063 40.6876 29.3213 40.6876H34.2562C36.3562 40.6876 38.0625 38.9026 38.0625 36.6714C38.0625 34.2826 37.0125 33.4164 35.4638 32.8651L27.5625 30.1089C26.0138 29.5576 24.9638 28.7176 24.9638 26.3026C24.9638 24.0976 26.67 22.2864 28.77 22.2864H33.705C36.12 22.2864 38.0888 24.3339 38.0888 26.8801" stroke="#143B2E" stroke-width="3.9375" stroke-linecap="round" stroke-linejoin="round"/>
<path d="M31.5 19.6875V43.3125" stroke="#143B2E" stroke-width="3.9375" stroke-linecap="round" stroke-linejoin="round"/>
<path d="M57.75 31.5C57.75 45.99 45.99 57.75 31.5 57.75C17.01 57.75 5.25 45.99 5.25 31.5C5.25 17.01 17.01 5.25 31.5 5.25" stroke="#143B2E" stroke-width="3.9375" stroke-linecap="round" stroke-linejoin="round"/>
<path d="M44.625 7.875V18.375H55.125" stroke="#143B2E" stroke-width="3.9375" stroke-linecap="round" stroke-linejoin="round"/>
<path d="M57.75 5.25L44.625 18.375" stroke="#143B2E" stroke-width="3.9375" stroke-linecap="round" stroke-linejoin="round"/>
</svg>
