<svg width="65" height="65" viewBox="0 0 65 65" fill="none" xmlns="http://www.w3.org/2000/svg">
<path d="M24.375 51.4583C24.375 53.4896 23.8063 55.4125 22.8042 57.0375C20.9354 60.1792 17.4958 62.2917 13.5417 62.2917C9.58751 62.2917 6.14793 60.1792 4.27918 57.0375C3.2771 55.4125 2.70834 53.4896 2.70834 51.4583C2.70834 45.4729 7.55626 40.625 13.5417 40.625C19.5271 40.625 24.375 45.4729 24.375 51.4583Z" stroke="#143B2E" stroke-width="4.0625" stroke-miterlimit="10" stroke-linecap="round" stroke-linejoin="round"/>
<path d="M9.3205 51.4568L12.0018 54.1381L17.7705 48.8027" stroke="#143B2E" stroke-width="4.0625" stroke-linecap="round" stroke-linejoin="round"/>
<path d="M48.0767 19.0935C47.4267 18.9852 46.7496 18.9581 46.0455 18.9581H18.9621C18.2038 18.9581 17.4725 19.0123 16.7684 19.1206C17.1475 18.3623 17.6892 17.6582 18.3392 17.0082L27.1413 8.179C30.8517 4.49567 36.8642 4.49567 40.5746 8.179L45.3142 12.9726C47.0475 14.6789 47.9684 16.8456 48.0767 19.0935Z" stroke="#143B2E" stroke-width="4.0625" stroke-linecap="round" stroke-linejoin="round"/>
<path d="M59.5833 32.5002V46.0418C59.5833 54.1668 54.1667 59.5835 46.0417 59.5835H20.6646C21.5042 58.8793 22.2354 58.0127 22.8042 57.0377C23.8062 55.4127 24.375 53.4897 24.375 51.4585C24.375 45.4731 19.5271 40.6252 13.5417 40.6252C10.2917 40.6252 7.39374 42.0605 5.41666 44.3085V32.5002C5.41666 25.1335 9.85832 19.9877 16.7646 19.121C17.4687 19.0127 18.2 18.9585 18.9583 18.9585H46.0417C46.7458 18.9585 47.4229 18.9855 48.0729 19.0939C55.0604 19.9064 59.5833 25.0793 59.5833 32.5002Z" stroke="#143B2E" stroke-width="4.0625" stroke-linecap="round" stroke-linejoin="round"/>
<path d="M59.5833 33.854H51.4583C48.4792 33.854 46.0417 36.2915 46.0417 39.2707C46.0417 42.2498 48.4792 44.6873 51.4583 44.6873H59.5833" stroke="#143B2E" stroke-width="4.0625" stroke-linecap="round" stroke-linejoin="round"/>
</svg>
